<svg width="512" height="512" viewBox="0 0 512 512" fill="none" xmlns="http://www.w3.org/2000/svg">
<path d="M483.752 150.527C483.748 141.918 481.907 134.311 478.183 127.783C474.526 121.363 469.05 115.982 461.701 111.727C401.055 76.758 340.351 41.896 279.723 6.891C263.378 -2.544 247.531 -2.2 231.307 7.371C207.169 21.607 86.312 90.848 50.299 111.708C35.466 120.293 28.249 133.432 28.246 150.512C28.224 220.837 28.246 291.159 28.224 361.487C28.227 369.906 29.99 377.366 33.549 383.796C37.209 390.41 42.762 395.94 50.278 400.289C86.295 421.149 207.168 490.386 231.301 504.625C247.532 514.202 263.379 514.544 279.729 505.105C340.357 470.098 401.066 435.237 461.722 400.27C469.238 395.92 474.791 390.388 478.451 383.779C482.006 377.347 483.772 369.888 483.776 361.468C483.776 361.469 483.776 220.854 483.752 150.527Z" fill="#B14796"/>
<path d="M256.696 255.314L33.549 383.796C37.209 390.41 42.762 395.94 50.278 400.289C86.295 421.149 207.168 490.386 231.301 504.625C247.532 514.202 263.379 514.544 279.729 505.105C340.357 470.098 401.066 435.237 461.722 400.27C469.238 395.92 474.791 390.388 478.451 383.779L256.696 255.314Z" fill="#782379"/>
<path d="M483.752 150.527C483.748 141.918 481.907 134.311 478.183 127.783L256.696 255.313L478.451 383.78C482.006 377.348 483.772 369.889 483.776 361.469C483.776 361.469 483.776 220.854 483.752 150.527Z" fill="#962C87"/>
<path d="M321.643 292.935C308.723 315.846 284.174 331.33 256 331.33C227.998 331.33 203.588 316.04 190.603 293.372C184.081 281.997 180.656 269.111 180.669 255.999C180.669 214.395 214.397 180.669 256.001 180.669C283.823 180.669 308.103 195.768 321.153 218.205L386.996 180.289C360.825 135.114 311.965 104.719 256.001 104.719C172.448 104.719 104.718 172.45 104.718 255.999C104.718 283.409 112.009 309.112 124.755 331.284C150.859 376.699 199.859 407.28 256 407.28C312.243 407.28 361.321 376.577 387.388 331.027L321.643 292.935Z" fill="white"/>
<path d="M450.197 247.349V232.387H438.04V220.23H423.078V232.387H404.842V220.23H389.879V232.387H377.722V247.349H389.879V265.584H377.722V280.548H389.879V292.703H404.842V280.548H423.078V292.703H438.04V280.548H450.198V265.584H438.04V247.349H450.197ZM423.078 265.584H404.842V247.349H423.078V265.584Z" fill="white"/>
</svg>
