<svg width="210" height="210" viewBox="0 0 210 210" fill="none" xmlns="http://www.w3.org/2000/svg">
<path d="M118.843 178H120.973V199.48H118.843L111.013 180.55L103.183 199.48H101.023V178H103.153V188.2C103.153 191.95 103.093 193.6 102.973 195.07L109.963 178H112.033L119.023 194.98C118.903 194.17 118.843 191.8 118.843 188.53V178Z" fill="#FF730D"/>
<path d="M94.3407 184.891C93.3527 189.22 89.5966 191.655 85.4434 190.707C81.2902 189.759 78.9628 185.935 79.9508 181.607C80.9321 177.307 84.6881 174.872 88.8413 175.82C92.9945 176.768 95.322 180.592 94.3407 184.891ZM92.2867 184.453C93.0477 181.119 91.4692 178.328 88.4274 177.633C85.4149 176.946 82.7525 178.769 81.9914 182.103C81.2438 185.379 82.8448 188.206 85.8573 188.894C88.8991 189.588 91.539 187.729 92.2867 184.453Z" fill="#FF730D"/>
<path d="M62.3723 181.811L63.1793 180.135L64.2064 180.63C66.612 181.789 68.9336 180.909 70.1312 178.422L73.7237 170.962L75.5887 171.86L69.2887 184.942L67.5318 184.096L68.3729 182.004C67.1825 183.162 65.3615 183.417 63.5235 182.532C63.1181 182.337 62.7797 182.141 62.3723 181.811Z" fill="#FF730D"/>
<path d="M59.4555 161.589C62.7861 164.246 63.1064 168.415 60.2633 171.98C57.4389 175.522 53.2888 176.203 50.052 173.622C46.9794 171.171 46.6315 167.325 49.194 164.112L49.83 163.314L58.8601 170.516C60.95 167.655 60.7677 164.9 58.3284 162.955C56.4755 161.477 54.6433 161.32 53.024 162.485L51.476 161.25C53.9937 159.344 56.7816 159.457 59.4555 161.589ZM51.1556 172.238C53.29 173.94 55.8196 173.655 57.878 171.651L50.5131 165.778C48.7736 167.959 49.0212 170.536 51.1556 172.238Z" fill="#FF730D"/>
<path d="M25.0602 146.593L25.2856 148.583L23.875 148.696L23.6486 146.774C23.5044 145.645 23.5153 144.907 23.6074 144.13C23.0098 144.617 22.3731 145.024 21.4 145.492L19.5891 146.365L18.9773 145.094L20.7883 144.222C21.7613 143.754 22.5161 143.523 23.2299 143.346C22.5922 142.921 21.9945 142.509 21.2145 141.719L19.8259 140.357L20.7949 139.258L22.2226 140.701C22.9895 141.464 23.5031 142.116 23.8836 142.698C24.1098 141.923 24.387 141.324 24.9386 140.325L25.9165 138.623L27.154 139.325L26.2161 141.042C25.6785 142 25.186 142.637 24.7085 143.167C25.4213 143.056 26.1591 143.067 27.2834 143.259L29.2236 143.623L29.0014 145.028L27.0603 144.731C25.949 144.567 25.2282 144.315 24.5344 144.05C24.8168 144.913 24.98 145.666 25.0602 146.593Z" fill="#FF730D"/>
<path d="M32 120.843V122.973L10.52 122.973V120.843L29.45 113.013L10.52 105.183V103.023L32 103.023V105.153L21.8 105.153C18.05 105.153 16.4 105.093 14.93 104.973L32 111.963V114.033L15.02 121.023C15.83 120.903 18.2 120.843 21.47 120.843L32 120.843Z" fill="#FF730D"/>
<path d="M25.1089 94.3407C20.7802 93.3527 18.345 89.5966 19.2929 85.4434C20.2408 81.2902 24.0646 78.9628 28.3933 79.9508C32.6927 80.9321 35.128 84.6881 34.18 88.8413C33.2321 92.9945 29.4083 95.322 25.1089 94.3407ZM25.5469 92.2867C28.8812 93.0477 31.6724 91.4692 32.3667 88.4274C33.0543 85.4149 31.231 82.7525 27.8968 81.9914C24.621 81.2438 21.7938 82.8448 21.1063 85.8573C20.412 88.8991 22.2712 91.539 25.5469 92.2867Z" fill="#FF730D"/>
<path d="M28.1888 62.3723L29.8646 63.1793L29.3699 64.2064C28.2115 66.612 29.0913 68.9336 31.578 70.1312L39.038 73.7237L38.1398 75.5887L25.0578 69.2887L25.9038 67.5318L27.9961 68.3729C26.8379 67.1825 26.5828 65.3615 27.4679 63.5235C27.6631 63.1181 27.8594 62.7797 28.1888 62.3723Z" fill="#FF730D"/>
<path d="M48.4105 59.4555C45.7545 62.7861 41.5851 63.1064 38.0199 60.2633C34.4783 57.4389 33.7972 53.2888 36.3784 50.052C38.8287 46.9794 42.6748 46.6315 45.8881 49.194L46.6856 49.83L39.4843 58.8601C42.3455 60.95 45.1001 60.7677 47.0454 58.3284C48.5231 56.4755 48.6795 54.6433 47.5151 53.024L48.7496 51.476C50.6557 53.9937 50.5429 56.7816 48.4105 59.4555ZM37.7623 51.1556C36.0601 53.29 36.3452 55.8196 38.3489 57.878L44.2222 50.5131C42.0409 48.7736 39.4644 49.0212 37.7623 51.1556Z" fill="#FF730D"/>
<path d="M63.4066 25.0602L61.4174 25.2856L61.3041 23.875L63.2263 23.6486C64.3555 23.5044 65.0933 23.5153 65.8702 23.6074C65.3826 23.0098 64.9761 22.3731 64.5075 21.4L63.6354 19.5891L64.9058 18.9773L65.7779 20.7883C66.2465 21.7613 66.4768 22.5161 66.654 23.2299C67.0795 22.5922 67.4909 21.9945 68.2807 21.2145L69.6431 19.8259L70.7424 20.7949L69.2989 22.2226C68.5361 22.9895 67.8844 23.5031 67.3018 23.8836C68.0767 24.1098 68.6764 24.387 69.6745 24.9386L71.3775 25.9165L70.6748 27.154L68.9578 26.2161C67.9997 25.6785 67.363 25.186 66.8333 24.7085C66.9435 25.4213 66.9326 26.1591 66.7414 27.2834L66.3772 29.2236L64.9716 29.0014L65.2688 27.0603C65.4329 25.949 65.6851 25.2282 65.9504 24.5344C65.0874 24.8168 64.3336 24.98 63.4066 25.0602Z" fill="#FF730D"/>
<path d="M89.157 32H87.027L87.027 10.52L89.157 10.52L96.987 29.45L104.817 10.52H106.977V32H104.847V21.8C104.847 18.05 104.907 16.4 105.027 14.93L98.037 32H95.967L88.977 15.02C89.097 15.83 89.157 18.2 89.157 21.47L89.157 32Z" fill="#FF730D"/>
<path d="M115.659 25.1089C116.647 20.7802 120.403 18.345 124.557 19.2929C128.71 20.2408 131.037 24.0646 130.049 28.3933C129.068 32.6927 125.312 35.128 121.159 34.18C117.005 33.2321 114.678 29.4083 115.659 25.1089ZM117.713 25.5469C116.952 28.8812 118.531 31.6724 121.573 32.3667C124.585 33.0543 127.248 31.231 128.009 27.8968C128.756 24.621 127.155 21.7938 124.143 21.1063C121.101 20.412 118.461 22.2712 117.713 25.5469Z" fill="#FF730D"/>
<path d="M147.628 28.1888L146.821 29.8646L145.794 29.3699C143.388 28.2115 141.066 29.0913 139.869 31.578L136.276 39.038L134.411 38.1398L140.711 25.0578L142.468 25.9038L141.627 27.9961C142.817 26.8379 144.639 26.5828 146.476 27.4679C146.882 27.6631 147.22 27.8594 147.628 28.1888Z" fill="#FF730D"/>
<path d="M150.545 48.4105C147.214 45.7545 146.894 41.5851 149.737 38.0199C152.561 34.4783 156.711 33.7972 159.948 36.3784C163.021 38.8287 163.369 42.6748 160.806 45.8881L160.17 46.6856L151.14 39.4843C149.05 42.3455 149.232 45.1001 151.672 47.0454C153.525 48.5231 155.357 48.6795 156.976 47.5151L158.524 48.7496C156.006 50.6557 153.218 50.5429 150.545 48.4105ZM158.844 37.7623C156.71 36.0601 154.18 36.3452 152.122 38.3489L159.487 44.2222C161.226 42.0409 160.979 39.4644 158.844 37.7623Z" fill="#FF730D"/>
<path d="M184.94 63.4066L184.714 61.4174L186.125 61.3041L186.351 63.2263C186.496 64.3555 186.485 65.0933 186.393 65.8702C186.99 65.3826 187.627 64.9761 188.6 64.5075L190.411 63.6354L191.023 64.9058L189.212 65.7779C188.239 66.2465 187.484 66.4768 186.77 66.654C187.408 67.0795 188.006 67.4909 188.785 68.2807L190.174 69.6431L189.205 70.7424L187.777 69.2989C187.01 68.5361 186.497 67.8844 186.116 67.3018C185.89 68.0767 185.613 68.6764 185.061 69.6745L184.083 71.3775L182.846 70.6748L183.784 68.9578C184.321 67.9997 184.814 67.363 185.291 66.8333C184.579 66.9435 183.841 66.9326 182.717 66.7414L180.776 66.3772L180.999 64.9716L182.94 65.2688C184.051 65.4329 184.772 65.6851 185.466 65.9504C185.183 65.0874 185.02 64.3336 184.94 63.4066Z" fill="#FF730D"/>
<path d="M178 92.157V90.027H199.48V92.157L180.55 99.987L199.48 107.817V109.977H178V107.847H188.2C191.95 107.847 193.6 107.907 195.07 108.027L178 101.037V98.967L194.98 91.977C194.17 92.097 191.8 92.157 188.53 92.157H178Z" fill="#FF730D"/>
<path d="M184.891 115.659C189.22 116.647 191.655 120.403 190.707 124.557C189.759 128.71 185.935 131.037 181.607 130.049C177.307 129.068 174.872 125.312 175.82 121.159C176.768 117.005 180.592 114.678 184.891 115.659ZM184.453 117.713C181.119 116.952 178.328 118.531 177.633 121.573C176.946 124.585 178.769 127.248 182.103 128.009C185.379 128.756 188.206 127.155 188.894 124.143C189.588 121.101 187.729 118.461 184.453 117.713Z" fill="#FF730D"/>
<path d="M181.811 147.628L180.135 146.821L180.63 145.794C181.789 143.388 180.909 141.066 178.422 139.869L170.962 136.276L171.86 134.411L184.942 140.711L184.096 142.468L182.004 141.627C183.162 142.817 183.417 144.639 182.532 146.476C182.337 146.882 182.141 147.22 181.811 147.628Z" fill="#FF730D"/>
<path d="M161.589 150.545C164.246 147.214 168.415 146.894 171.98 149.737C175.522 152.561 176.203 156.711 173.622 159.948C171.171 163.021 167.325 163.369 164.112 160.806L163.314 160.17L170.516 151.14C167.655 149.05 164.9 149.232 162.955 151.672C161.477 153.525 161.32 155.357 162.485 156.976L161.25 158.524C159.344 156.006 159.457 153.218 161.589 150.545ZM172.238 158.844C173.94 156.71 173.655 154.18 171.651 152.122L165.778 159.487C167.959 161.226 170.536 160.979 172.238 158.844Z" fill="#FF730D"/>
<path d="M146.593 184.94L148.583 184.714L148.696 186.125L146.774 186.351C145.645 186.496 144.907 186.485 144.13 186.393C144.617 186.99 145.024 187.627 145.492 188.6L146.365 190.411L145.094 191.023L144.222 189.212C143.754 188.239 143.523 187.484 143.346 186.77C142.921 187.408 142.509 188.006 141.719 188.785L140.357 190.174L139.258 189.205L140.701 187.777C141.464 187.01 142.116 186.497 142.698 186.116C141.923 185.89 141.324 185.613 140.325 185.061L138.623 184.083L139.325 182.846L141.042 183.784C142 184.321 142.637 184.814 143.167 185.291C143.056 184.579 143.067 183.841 143.259 182.717L143.623 180.776L145.028 180.999L144.731 182.94C144.567 184.051 144.315 184.772 144.05 185.466C144.913 185.183 145.666 185.02 146.593 184.94Z" fill="#FF730D"/>
</svg>
